<svg id="_x31_28px_copy_5" xmlns="http://www.w3.org/2000/svg" viewBox="0 0 96 108"><style>.st0{fill:#000}</style><path class="st0" d="M95.6 92.7c-1.8-18.3-10.5-36.9-28-44.7 5.4-5.3 8.5-12.7 8.4-20.3-.1-8.9-4.6-17.5-11.9-22.6C59.4 1.7 53.7 0 48 0c-5.7 0-11.4 1.7-16.1 5.1-7.3 5.1-11.8 13.6-11.9 22.6-.1 7.6 3 15 8.4 20.3-16.3 7.3-25 24-27.5 41 0 0 .7 2.2 3.5 2.6s4-1.6 4-1.6c1.1-7.5 3.5-14.7 7.7-21.2 4.6-7.1 11.4-12.4 19.6-14.8 1-.3 1.9-.5 2.7-1.2.9-.8 1.4-1.9 1.5-3.1.1-1.1-.3-2.3-1-3.1-.7-.9-1.8-1.3-2.7-2-4-2.9-6.8-7.3-7.9-12.1-2-9.1 2.4-18.6 10.8-22.7 2.8-1.4 5.8-2 8.9-2 3 0 6.1.6 8.9 2 8.4 4.1 12.8 13.6 10.8 22.7-1.1 4.8-3.9 9.2-7.9 12.1-.9.7-2 1.1-2.7 2-.7.9-1.1 2-1 3.1.1 1.2.6 2.3 1.5 3.1.8.7 1.7.9 2.7 1.2 8.1 2.4 15 7.6 19.6 14.8 5 7.7 7.5 16.2 8.2 25.2v4c0 2-1 2-2 2h-84s-2 1-2 4 2 4 2 4h89c1.2 0 2.6-.2 3.5-1.1 1.3-1.2 1.5-2.6 1.5-4.2-.1-3.4-.2-6.6-.5-10z"/></svg>